<?xml version="1.0" encoding="UTF-8" standalone="no" ?>
<!DOCTYPE svg PUBLIC "-//W3C//DTD SVG 1.1//EN" "http://www.w3.org/Graphics/SVG/1.1/DTD/svg11.dtd">
<svg xmlns="http://www.w3.org/2000/svg" xmlns:xlink="http://www.w3.org/1999/xlink" version="1.1" width="1280" height="1024" viewBox="0 0 1280 1024" xml:space="preserve">
<desc>Created with Fabric.js 3.1.0</desc>
<defs>
</defs>
<g transform="matrix(1.9692780337941629 0 0 1.9692780337941629 640.0153846153846 512.012312418764)" id="background-logo"  >
<rect style="stroke: none; stroke-width: 1; stroke-dasharray: none; stroke-linecap: butt; stroke-dashoffset: 0; stroke-linejoin: miter; stroke-miterlimit: 4; fill: rgb(255,255,255); fill-rule: nonzero; opacity: 1;"  paint-order="stroke"  x="-325" y="-260" rx="0" ry="0" width="650" height="520" />
</g>
<g transform="matrix(1.9692780337941629 0 0 1.9692780337941629 641.5298440407878 529.854956043956)" id="text-logo-path"  >
<filter id="SVGID_108992" y="-23.075345976422348%" height="146.15069195284468%" x="-20.688404965694485%" width="141.37680993138898%" >
	<feGaussianBlur in="SourceAlpha" stdDeviation="0"></feGaussianBlur>
	<feOffset dx="3" dy="3" result="oBlur" ></feOffset>
	<feFlood flood-color="rgb(91,48,43)" flood-opacity="1"/>
	<feComposite in2="oBlur" operator="in" />
	<feMerge>
		<feMergeNode></feMergeNode>
		<feMergeNode in="SourceGraphic"></feMergeNode>
	</feMerge>
</filter>
<path style="stroke: rgb(91,48,43); stroke-width: 8; stroke-dasharray: none; stroke-linecap: butt; stroke-dashoffset: 0; stroke-linejoin: miter; stroke-miterlimit: 10; fill: rgb(255,222,89); fill-rule: nonzero; opacity: 1;filter: url(#SVGID_108992);"  paint-order="stroke"  transform=" translate(-211.195, 14.795000000000002)" d="M -6.7 -43.76 L -6.7 -43.76 Q -6.7 -47.35 -5.68 -50.21 Q -4.65 -53.06 -2.8 -55.28 Q -0.95 -57.5 1.59 -59.05 Q 4.14 -60.61 7.16 -61.61 Q 10.18 -62.62 13.55 -63.1 Q 16.92 -63.57 20.47 -63.57 L 20.47 -63.57 Q 24.61 -63.57 28.78 -62.97 Q 32.96 -62.37 36.8 -61.27 Q 40.65 -60.17 43.98 -58.61 Q 47.31 -57.06 49.79 -55.17 Q 52.26 -53.28 53.67 -51.09 Q 55.08 -48.89 55.08 -46.51 L 55.08 -46.51 Q 55.08 -43.69 53.85 -40.94 Q 52.62 -38.2 50.01 -35.98 Q 47.39 -33.76 43.3 -32.34 Q 39.22 -30.91 33.51 -30.8 L 33.51 -30.8 Q 37.13 -30.8 39.84 -29.64 Q 42.55 -28.49 44.38 -26.53 Q 46.22 -24.57 47.13 -22.01 Q 48.05 -19.45 48.05 -16.63 L 48.05 -16.63 Q 48.05 -14.32 47.42 -11.94 Q 46.8 -9.56 45.56 -7.36 Q 44.31 -5.16 42.44 -3.24 Q 40.58 -1.32 38.07 0.11 Q 35.56 1.54 32.41 2.36 Q 29.26 3.19 25.49 3.19 L 25.49 3.19 Q 23.11 3.19 20.47 2.87 Q 17.83 2.56 15.14 2.03 Q 12.45 1.5 9.85 0.77 Q 7.25 0.04 4.94 -0.81 L 4.94 -0.81 Q 3.92 -1.06 3.13 -1.57 Q 2.34 -2.09 2.34 -3.41 L 2.34 -3.41 Q 2.34 -9.48 2.66 -15.86 Q 2.97 -22.23 3.92 -28.31 Q 4.87 -34.39 6.67 -39.9 Q 8.46 -45.41 11.43 -49.77 L 11.43 -49.77 Q 14.03 -51.56 16.15 -51.56 L 16.15 -51.56 Q 18.82 -51.56 20.62 -48.56 L 20.62 -48.56 Q 18.93 -46.29 17.74 -43.51 Q 16.55 -40.72 15.75 -37.66 Q 14.94 -34.61 14.45 -31.42 Q 13.95 -28.23 13.66 -25.2 L 13.66 -25.2 Q 13.48 -23.47 13.35 -21.53 Q 13.22 -19.59 13.11 -17.58 Q 13 -15.56 12.95 -13.57 Q 12.89 -11.57 12.89 -9.74 L 12.89 -9.74 Q 12.89 -9.45 12.89 -8.94 Q 12.89 -8.42 12.98 -7.87 Q 13.07 -7.32 13.22 -6.87 Q 13.37 -6.41 13.66 -6.19 L 13.66 -6.19 Q 15.89 -5.46 18.46 -4.94 Q 21.02 -4.43 23.58 -4.43 L 23.58 -4.43 Q 26.7 -4.43 29.63 -5.18 Q 32.56 -5.93 34.83 -7.56 Q 37.1 -9.19 38.47 -11.74 Q 39.84 -14.28 39.84 -17.91 L 39.84 -17.91 Q 39.84 -20.03 39.04 -21.44 Q 38.23 -22.85 36.93 -23.8 Q 35.63 -24.76 33.97 -25.32 Q 32.3 -25.89 30.56 -26.35 Q 28.82 -26.81 27.15 -27.25 Q 25.49 -27.69 24.19 -28.36 Q 22.89 -29.04 22.08 -30.05 Q 21.28 -31.05 21.28 -32.67 L 21.28 -32.67 Q 21.28 -33.44 21.37 -34 Q 21.46 -34.57 21.81 -34.94 Q 22.16 -35.3 22.83 -35.49 Q 23.51 -35.67 24.68 -35.67 L 24.68 -35.67 Q 26.26 -35.67 27.56 -35.54 Q 28.86 -35.41 30.36 -35.41 L 30.36 -35.41 Q 33.87 -35.41 36.71 -36.27 Q 39.55 -37.13 41.55 -38.6 Q 43.54 -40.06 44.62 -42.02 Q 45.7 -43.98 45.7 -46.22 L 45.7 -46.22 Q 45.7 -47.68 44.86 -48.91 Q 44.02 -50.13 42.5 -51.1 Q 40.98 -52.08 38.93 -52.81 Q 36.88 -53.54 34.46 -54.03 Q 32.04 -54.53 29.37 -54.77 Q 26.7 -55 23.95 -55 L 23.95 -55 Q 20.47 -55 17.08 -54.62 Q 13.7 -54.24 10.78 -53.45 Q 7.87 -52.66 5.62 -51.47 Q 3.37 -50.28 2.2 -48.71 L 2.2 -48.71 Q -0.18 -44.38 -2.05 -42.22 Q -3.92 -40.06 -5.09 -40.06 L -5.09 -40.06 Q -6.7 -40.06 -6.7 -43.76 Z M 49.66 -16 L 49.66 -16 Q 49.66 -20.03 50.87 -23.53 Q 52.08 -27.03 54.33 -29.61 Q 56.58 -32.19 59.84 -33.67 Q 63.1 -35.16 67.16 -35.16 L 67.16 -35.16 Q 70.64 -35.16 73.68 -34.08 Q 76.72 -33 79.38 -31.18 Q 82.03 -29.37 84.32 -27.03 Q 86.61 -24.68 88.59 -22.19 L 88.59 -22.19 L 87.89 -17.03 Q 86.9 -18.35 85.22 -19.89 Q 83.53 -21.42 81.65 -22.89 Q 79.76 -24.35 77.93 -25.65 Q 76.1 -26.95 74.78 -27.83 L 74.78 -27.83 L 74.49 -27.43 Q 75.55 -25.31 76.08 -22.94 Q 76.61 -20.58 76.61 -18.42 L 76.61 -18.42 Q 76.61 -16.26 76.14 -14.06 Q 75.66 -11.87 74.76 -9.81 Q 73.86 -7.76 72.56 -5.97 Q 71.26 -4.17 69.6 -2.86 Q 67.93 -1.54 65.95 -0.77 Q 63.98 0 61.74 0 L 61.74 0 Q 58.52 0 56.23 -1.41 Q 53.94 -2.82 52.48 -5.09 Q 51.01 -7.36 50.34 -10.22 Q 49.66 -13.07 49.66 -16 Z M 57.86 -14.5 L 57.86 -14.5 Q 57.86 -12.96 58.15 -11.61 Q 58.45 -10.25 59.07 -9.25 Q 59.69 -8.24 60.72 -7.64 Q 61.74 -7.03 63.17 -7.03 L 63.17 -7.03 Q 64.42 -7.03 65.59 -8.29 Q 66.76 -9.56 67.64 -11.48 Q 68.52 -13.4 69.05 -15.73 Q 69.58 -18.05 69.58 -20.18 L 69.58 -20.18 Q 69.58 -21.86 69.32 -23.31 Q 69.07 -24.76 68.55 -25.82 Q 68.04 -26.88 67.24 -27.5 Q 66.43 -28.13 65.3 -28.13 L 65.3 -28.13 Q 63.79 -28.13 62.44 -26.84 Q 61.08 -25.56 60.06 -23.57 Q 59.03 -21.57 58.45 -19.15 Q 57.86 -16.74 57.86 -14.5 Z M 81.63 -16 L 81.63 -16 Q 81.63 -20.03 82.84 -23.53 Q 84.05 -27.03 86.3 -29.61 Q 88.55 -32.19 91.81 -33.67 Q 95.07 -35.16 99.13 -35.16 L 99.13 -35.16 Q 102.61 -35.16 105.65 -34.08 Q 108.69 -33 111.35 -31.18 Q 114 -29.37 116.29 -27.03 Q 118.58 -24.68 120.56 -22.19 L 120.56 -22.19 L 119.86 -17.03 Q 118.87 -18.35 117.19 -19.89 Q 115.5 -21.42 113.62 -22.89 Q 111.73 -24.35 109.9 -25.65 Q 108.07 -26.95 106.75 -27.83 L 106.75 -27.83 L 106.46 -27.43 Q 107.52 -25.31 108.05 -22.94 Q 108.58 -20.58 108.58 -18.42 L 108.58 -18.42 Q 108.58 -16.26 108.11 -14.06 Q 107.63 -11.87 106.73 -9.81 Q 105.83 -7.76 104.53 -5.97 Q 103.23 -4.17 101.57 -2.86 Q 99.9 -1.54 97.92 -0.77 Q 95.95 0 93.71 0 L 93.71 0 Q 90.49 0 88.2 -1.41 Q 85.91 -2.82 84.45 -5.09 Q 82.98 -7.36 82.31 -10.22 Q 81.63 -13.07 81.63 -16 Z M 89.83 -14.5 L 89.83 -14.5 Q 89.83 -12.96 90.12 -11.61 Q 90.42 -10.25 91.04 -9.25 Q 91.66 -8.24 92.69 -7.64 Q 93.71 -7.03 95.14 -7.03 L 95.14 -7.03 Q 96.39 -7.03 97.56 -8.29 Q 98.73 -9.56 99.61 -11.48 Q 100.49 -13.4 101.02 -15.73 Q 101.55 -18.05 101.55 -20.18 L 101.55 -20.18 Q 101.55 -21.86 101.29 -23.31 Q 101.04 -24.76 100.52 -25.82 Q 100.01 -26.88 99.21 -27.5 Q 98.4 -28.13 97.27 -28.13 L 97.27 -28.13 Q 95.76 -28.13 94.41 -26.84 Q 93.05 -25.56 92.03 -23.57 Q 91 -21.57 90.42 -19.15 Q 89.83 -16.74 89.83 -14.5 Z M 114.77 -7.65 L 114.77 -7.65 Q 114.77 -9.16 114.95 -11.21 Q 115.14 -13.26 115.43 -15.53 Q 115.72 -17.8 116.11 -20.16 Q 116.49 -22.52 116.91 -24.68 Q 117.33 -26.84 117.77 -28.64 Q 118.21 -30.43 118.58 -31.57 L 118.58 -31.57 Q 118.95 -32.74 119.27 -33.44 Q 119.6 -34.13 120.03 -34.52 Q 120.45 -34.9 121.03 -35.03 Q 121.62 -35.16 122.53 -35.16 L 122.53 -35.16 Q 123.93 -35.16 124.71 -35.06 Q 125.5 -34.97 125.89 -34.63 Q 126.27 -34.28 126.34 -33.62 Q 126.42 -32.96 126.42 -31.82 L 126.42 -31.82 Q 126.42 -31.2 126.36 -30.4 Q 126.31 -29.59 126.2 -28.67 Q 126.09 -27.76 125.96 -26.79 Q 125.83 -25.82 125.68 -24.9 L 125.68 -24.9 Q 125.35 -22.74 124.99 -20.43 L 124.99 -20.43 L 125.39 -20 Q 125.46 -20.1 126.18 -21.39 Q 126.89 -22.67 127.94 -24.46 Q 128.98 -26.26 130.19 -28.22 Q 131.4 -30.18 132.5 -31.68 L 132.5 -31.68 Q 133.56 -33.18 134.75 -34.17 Q 135.94 -35.16 137.59 -35.16 L 137.59 -35.16 Q 139.12 -35.16 140.22 -34.26 Q 141.32 -33.36 141.32 -31.71 L 141.32 -31.71 Q 141.32 -30.29 141.14 -29 Q 140.95 -27.72 140.68 -26.51 Q 140.41 -25.31 140.11 -24.15 Q 139.82 -23 139.56 -21.79 L 139.56 -21.79 Q 139.38 -20.95 139.34 -20.73 Q 139.31 -20.51 139.31 -20.43 L 139.31 -20.43 L 139.71 -20 Q 139.78 -20.1 140.55 -21.37 Q 141.32 -22.63 142.44 -24.43 Q 143.55 -26.22 144.82 -28.2 Q 146.08 -30.18 147.18 -31.68 L 147.18 -31.68 Q 148.24 -33.14 149.3 -34.15 Q 150.37 -35.16 151.9 -35.16 L 151.9 -35.16 Q 153.63 -35.16 154.82 -34.26 Q 156.01 -33.36 156.01 -31.71 L 156.01 -31.71 Q 156.01 -29.19 155.75 -26.92 Q 155.49 -24.65 155.16 -22.45 Q 154.83 -20.25 154.58 -18 Q 154.32 -15.75 154.32 -13.22 L 154.32 -13.22 Q 154.32 -11.24 154.83 -10 Q 155.35 -8.75 156.08 -8.75 L 156.08 -8.75 Q 156.85 -8.75 157.69 -9.08 Q 158.53 -9.41 159.41 -9.92 Q 160.29 -10.44 161.13 -11.11 Q 161.98 -11.79 162.74 -12.52 L 162.74 -12.52 Q 164.54 -14.21 166.3 -16.33 L 166.3 -16.33 L 166.92 -7.69 Q 165.31 -6.41 163.71 -5.04 Q 162.12 -3.66 160.35 -2.55 Q 158.57 -1.43 156.45 -0.71 Q 154.32 0 151.65 0 L 151.65 0 Q 150.33 0 149.43 -0.86 Q 148.54 -1.72 147.99 -3.26 Q 147.44 -4.8 147.2 -6.88 Q 146.96 -8.97 146.96 -11.43 L 146.96 -11.43 Q 146.96 -13.73 147.13 -16.31 Q 147.29 -18.9 147.58 -21.53 L 147.58 -21.53 L 147.03 -21.53 L 139.6 -2.6 Q 138.65 -1.06 137.48 -0.53 Q 136.3 0 134.77 0 L 134.77 0 Q 133.59 0 132.9 -0.64 Q 132.2 -1.28 131.82 -2.29 Q 131.43 -3.3 131.3 -4.5 Q 131.18 -5.71 131.18 -6.85 L 131.18 -6.85 Q 131.18 -7.32 131.25 -8.2 Q 131.32 -9.08 131.47 -10.22 Q 131.62 -11.35 131.8 -12.62 Q 131.98 -13.88 132.17 -15.12 L 132.17 -15.12 Q 132.57 -18.05 133.15 -21.42 L 133.15 -21.42 L 132.6 -21.42 Q 132.17 -20.87 131.6 -19.78 Q 131.03 -18.68 130 -16.55 Q 128.98 -14.43 127.39 -11.04 Q 125.79 -7.65 123.27 -2.56 L 123.27 -2.56 Q 122.53 -1.06 121.56 -0.53 Q 120.59 0 119.42 0 L 119.42 0 Q 117.92 0 117 -0.64 Q 116.09 -1.28 115.59 -2.36 Q 115.1 -3.44 114.94 -4.82 Q 114.77 -6.19 114.77 -7.65 Z M 162.82 -7.36 L 162.82 -7.36 Q 162.82 -9.67 163.35 -12.73 Q 163.88 -15.78 164.65 -19.06 Q 165.42 -22.34 166.28 -25.6 Q 167.14 -28.86 167.8 -31.6 L 167.8 -31.6 Q 168.05 -32.56 168.82 -33.23 Q 169.59 -33.91 170.56 -34.33 Q 171.53 -34.75 172.58 -34.95 Q 173.62 -35.16 174.46 -35.16 L 174.46 -35.16 Q 176 -35.16 176.55 -34.59 Q 177.1 -34.02 177.1 -33.07 L 177.1 -33.07 Q 177.1 -32.26 176.73 -30.74 Q 176.37 -29.22 175.82 -27.3 Q 175.27 -25.38 174.65 -23.16 Q 174.02 -20.95 173.47 -18.73 Q 172.92 -16.52 172.56 -14.41 Q 172.19 -12.3 172.19 -10.62 L 172.19 -10.62 Q 172.19 -8.97 172.56 -8 Q 172.92 -7.03 174.06 -7.03 L 174.06 -7.03 Q 175.38 -7.03 176.99 -7.95 Q 178.6 -8.86 180.25 -10.16 Q 181.9 -11.46 183.47 -12.85 Q 185.05 -14.25 186.25 -15.23 L 186.25 -15.23 L 186.25 -7.8 Q 184.94 -6.59 182.98 -5.22 Q 181.02 -3.85 178.75 -2.69 Q 176.48 -1.54 174.11 -0.77 Q 171.75 0 169.63 0 L 169.63 0 Q 167.72 0 166.42 -0.53 Q 165.12 -1.06 164.32 -2.01 Q 163.51 -2.97 163.17 -4.34 Q 162.82 -5.71 162.82 -7.36 Z M 169.89 -45.45 L 169.89 -45.45 Q 169.89 -46.29 170.25 -47.35 Q 170.62 -48.41 171.44 -49.35 Q 172.27 -50.28 173.64 -50.92 Q 175.01 -51.56 177.06 -51.56 L 177.06 -51.56 Q 178.34 -51.56 179.48 -51.27 Q 180.62 -50.98 181.46 -50.37 Q 182.3 -49.77 182.79 -48.78 Q 183.29 -47.79 183.29 -46.44 L 183.29 -46.44 Q 183.29 -45.19 182.89 -44.02 Q 182.48 -42.85 181.6 -41.93 Q 180.73 -41.02 179.39 -40.45 Q 178.05 -39.88 176.18 -39.88 L 176.18 -39.88 Q 172.96 -39.88 171.42 -41.4 Q 169.89 -42.92 169.89 -45.45 Z M 183.65 -7.65 L 183.65 -7.65 Q 183.65 -10.07 183.95 -13.24 Q 184.24 -16.41 184.68 -19.68 Q 185.12 -22.96 185.67 -26 Q 186.22 -29.04 186.73 -31.2 L 186.73 -31.2 Q 187.13 -32.89 188.29 -34.02 Q 189.44 -35.16 191.42 -35.16 L 191.42 -35.16 Q 193.4 -35.16 194.17 -33.95 Q 194.93 -32.74 194.93 -30.73 L 194.93 -30.73 Q 194.93 -30.18 194.82 -29.24 Q 194.71 -28.31 194.55 -27.19 Q 194.38 -26.07 194.2 -24.88 Q 194.02 -23.69 193.85 -22.69 Q 193.69 -21.68 193.58 -20.93 Q 193.47 -20.18 193.47 -19.92 L 193.47 -19.92 L 194.2 -19.92 Q 194.42 -20.32 194.9 -21.22 Q 195.37 -22.12 196 -23.29 Q 196.62 -24.46 197.33 -25.76 Q 198.05 -27.06 198.67 -28.25 Q 199.29 -29.44 199.8 -30.36 Q 200.32 -31.27 200.57 -31.71 L 200.57 -31.71 Q 201.75 -33.69 203.25 -34.42 Q 204.75 -35.16 206.58 -35.16 L 206.58 -35.16 Q 208.41 -35.16 209.49 -33.62 Q 210.57 -32.08 210.57 -29.37 L 210.57 -29.37 Q 210.57 -28.97 210.41 -28.02 Q 210.24 -27.06 209.99 -25.74 Q 209.73 -24.43 209.42 -22.85 Q 209.11 -21.28 208.85 -19.63 Q 208.59 -17.98 208.43 -16.37 Q 208.26 -14.76 208.26 -13.4 L 208.26 -13.4 Q 208.26 -11.13 208.83 -9.67 Q 209.4 -8.2 210.61 -8.2 L 210.61 -8.2 Q 211.16 -8.2 211.87 -8.53 Q 212.59 -8.86 213.41 -9.39 Q 214.23 -9.92 215.09 -10.62 Q 215.95 -11.32 216.8 -12.05 L 216.8 -12.05 Q 218.74 -13.77 220.86 -15.93 L 220.86 -15.93 L 221.48 -7.73 L 219.65 -6.34 Q 218.15 -5.2 216.6 -4.06 Q 215.04 -2.93 213.35 -2.03 Q 211.67 -1.14 209.84 -0.57 Q 208.01 0 205.99 0 L 205.99 0 Q 203.98 0 202.61 -2.91 Q 201.23 -5.82 201.23 -11.43 L 201.23 -11.43 Q 201.23 -13.62 201.53 -16.17 Q 201.82 -18.71 202.26 -21.64 L 202.26 -21.64 L 201.67 -21.64 L 192.08 -2.6 Q 191.35 -1.1 190.43 -0.55 Q 189.51 0 188.31 0 L 188.31 0 Q 186.8 0 185.89 -0.64 Q 184.97 -1.28 184.48 -2.36 Q 183.98 -3.44 183.82 -4.82 Q 183.65 -6.19 183.65 -7.65 Z M 210.57 26.7 L 210.57 26.7 Q 210.57 25.05 211.41 22.98 Q 212.26 20.91 213.72 18.62 Q 215.19 16.33 217.2 13.86 Q 219.21 11.39 221.58 8.94 Q 223.94 6.48 226.52 4.1 Q 229.1 1.72 231.74 -0.44 L 231.74 -0.44 L 232.73 -3.85 Q 230.75 -2.09 228.61 -1.01 Q 226.46 0.07 224.45 0.07 L 224.45 0.07 Q 222.69 0.07 221.03 -0.64 Q 219.36 -1.35 218.08 -2.69 Q 216.8 -4.03 216.03 -5.95 Q 215.26 -7.87 215.26 -10.29 L 215.26 -10.29 Q 215.26 -13.04 216.03 -15.93 Q 216.8 -18.82 218.15 -21.59 Q 219.51 -24.35 221.36 -26.81 Q 223.21 -29.26 225.4 -31.09 Q 227.6 -32.92 230.04 -34 Q 232.47 -35.08 235 -35.08 L 235 -35.08 Q 235.84 -35.08 236.32 -34.75 Q 236.79 -34.42 237.1 -34 Q 237.41 -33.58 237.71 -33.18 Q 238 -32.78 238.44 -32.59 L 238.44 -32.59 Q 238.88 -32.41 239.34 -32.35 Q 239.79 -32.3 240.27 -32.3 L 240.27 -32.3 Q 240.67 -32.3 241.09 -32.32 Q 241.52 -32.34 241.92 -32.34 L 241.92 -32.34 Q 242.47 -32.34 242.94 -32.23 Q 243.42 -32.12 243.79 -31.75 Q 244.15 -31.38 244.35 -30.73 Q 244.56 -30.07 244.56 -28.93 L 244.56 -28.93 Q 244.56 -27.98 244.41 -26.37 Q 244.26 -24.76 244.01 -22.78 Q 243.75 -20.8 243.44 -18.59 Q 243.13 -16.37 242.8 -14.25 L 242.8 -14.25 Q 242.03 -9.19 241.04 -3.44 L 241.04 -3.44 Q 242.14 -4.06 243.42 -4.98 Q 244.7 -5.9 246.28 -7.43 Q 247.85 -8.97 249.79 -11.3 Q 251.73 -13.62 254.15 -17.1 L 254.15 -17.1 L 255.91 -8.97 Q 255.25 -7.84 254.21 -6.65 Q 253.16 -5.46 251.9 -4.27 Q 250.63 -3.08 249.26 -1.96 Q 247.89 -0.84 246.57 0.15 L 246.57 0.15 Q 243.46 2.49 239.87 4.69 L 239.87 4.69 Q 239.17 8.61 238.22 12.32 Q 237.27 16.04 235.97 19.28 Q 234.67 22.52 233 25.23 Q 231.34 27.94 229.23 29.88 Q 227.12 31.82 224.52 32.9 Q 221.92 33.98 218.77 33.98 L 218.77 33.98 Q 217.53 33.98 216.08 33.73 Q 214.64 33.47 213.41 32.7 Q 212.18 31.93 211.38 30.51 Q 210.57 29.08 210.57 26.7 Z M 217.75 25.6 L 217.75 25.6 Q 217.75 26.95 219.21 26.95 L 219.21 26.95 Q 220.75 26.95 222.13 26.06 Q 223.5 25.16 224.65 23.69 Q 225.81 22.23 226.76 20.36 Q 227.71 18.49 228.44 16.53 Q 229.17 14.58 229.69 12.71 Q 230.2 10.84 230.49 9.38 L 230.49 9.38 Q 229.06 10.33 227.58 11.65 Q 226.1 12.96 224.69 14.48 Q 223.28 16 222.02 17.61 Q 220.75 19.23 219.8 20.71 Q 218.85 22.19 218.3 23.47 Q 217.75 24.76 217.75 25.6 Z M 224.63 -11.87 L 224.63 -11.87 Q 224.63 -10.95 224.76 -10.09 Q 224.89 -9.23 225.22 -8.55 Q 225.55 -7.87 226.1 -7.45 Q 226.65 -7.03 227.49 -7.03 L 227.49 -7.03 Q 228.85 -7.03 229.94 -8.2 Q 231.04 -9.38 231.85 -11.02 Q 232.65 -12.67 233.15 -14.43 Q 233.64 -16.19 233.79 -17.36 L 233.79 -17.36 L 236.02 -28.13 Q 234.52 -28.13 233.09 -27.37 Q 231.67 -26.62 230.4 -25.34 Q 229.14 -24.06 228.08 -22.41 Q 227.01 -20.76 226.25 -18.95 Q 225.48 -17.14 225.05 -15.31 Q 224.63 -13.48 224.63 -11.87 Z M 271.55 -16.48 L 271.55 -16.48 Q 271.55 -20.03 272.37 -23.91 Q 273.19 -27.8 274.77 -31.75 Q 276.34 -35.71 278.58 -39.59 Q 280.81 -43.47 283.67 -46.97 Q 286.52 -50.46 289.91 -53.45 Q 293.3 -56.43 297.14 -58.61 Q 300.99 -60.79 305.24 -62.04 Q 309.48 -63.28 314.06 -63.28 L 314.06 -63.28 Q 315.31 -63.28 316.06 -63.08 Q 316.81 -62.88 317.19 -62.57 Q 317.58 -62.26 317.69 -61.93 Q 317.8 -61.6 317.8 -61.34 L 317.8 -61.34 Q 317.8 -61.16 317.78 -61.01 Q 317.76 -60.86 317.76 -60.79 L 317.76 -60.79 L 317.76 -60.61 Q 318.75 -60.02 319.78 -59.89 Q 320.8 -59.77 321.79 -59.67 Q 322.78 -59.58 323.66 -59.29 Q 324.54 -59 325.2 -58.14 Q 325.85 -57.28 326.24 -55.63 Q 326.62 -53.98 326.62 -51.16 L 326.62 -51.16 Q 326.62 -48.96 326.2 -46.22 Q 325.78 -43.47 325.09 -40.47 Q 324.39 -37.46 323.53 -34.39 Q 322.67 -31.31 321.81 -28.42 Q 320.95 -25.52 320.14 -22.96 Q 319.34 -20.4 318.79 -18.49 L 318.79 -18.49 Q 318.68 -16.88 318.6 -15.49 Q 318.53 -14.1 318.53 -12.6 L 318.53 -12.6 Q 318.53 -11.43 318.59 -10.68 Q 318.64 -9.92 318.79 -9.48 Q 318.93 -9.05 319.19 -8.88 Q 319.45 -8.72 319.85 -8.72 L 319.85 -8.72 Q 320.58 -8.72 321.7 -9.1 Q 322.81 -9.48 324.08 -10.09 Q 325.34 -10.69 326.72 -11.44 Q 328.09 -12.19 329.35 -12.95 Q 330.62 -13.7 331.71 -14.32 Q 332.81 -14.94 333.54 -15.34 L 333.54 -15.34 L 335.41 -8.2 Q 334.64 -7.4 333.45 -6.37 Q 332.26 -5.35 330.78 -4.3 Q 329.3 -3.26 327.58 -2.27 Q 325.85 -1.28 324.06 -0.51 Q 322.27 0.26 320.45 0.71 Q 318.64 1.17 316.96 1.17 L 316.96 1.17 Q 315.78 1.17 314.59 0.77 Q 313.4 0.37 312.43 -0.71 Q 311.46 -1.79 310.84 -3.7 Q 310.22 -5.6 310.22 -8.64 L 310.22 -8.64 Q 310.22 -9.92 310.4 -11.41 Q 310.58 -12.89 310.88 -14.61 L 310.88 -14.61 Q 308.83 -10.47 306.24 -7.31 Q 303.66 -4.14 300.75 -2 Q 297.84 0.15 294.73 1.25 Q 291.61 2.34 288.5 2.34 L 288.5 2.34 Q 285.1 2.34 282.04 1.15 Q 278.98 -0.04 276.64 -2.4 Q 274.29 -4.76 272.92 -8.28 Q 271.55 -11.79 271.55 -16.48 Z M 282.09 -16.7 L 282.09 -16.7 Q 282.09 -11.54 284.16 -8.7 Q 286.23 -5.86 290.59 -5.86 L 290.59 -5.86 Q 293.3 -5.86 295.73 -6.99 Q 298.17 -8.13 300.26 -9.98 Q 302.34 -11.83 304.08 -14.15 Q 305.82 -16.48 307.12 -18.86 Q 308.42 -21.24 309.27 -23.46 Q 310.11 -25.67 310.47 -27.28 L 310.47 -27.28 L 318.09 -55.55 Q 316.81 -55.92 315.44 -56.09 Q 314.06 -56.25 312.78 -56.25 L 312.78 -56.25 Q 309.81 -56.25 306.92 -55.11 Q 304.03 -53.98 301.3 -52.02 Q 298.57 -50.06 296.1 -47.41 Q 293.63 -44.75 291.49 -41.69 Q 289.34 -38.64 287.62 -35.34 Q 285.9 -32.04 284.66 -28.77 Q 283.41 -25.49 282.75 -22.39 Q 282.09 -19.3 282.09 -16.7 Z M 321.9 15.71 L 321.9 15.71 Q 321.9 14.21 322.38 12.32 Q 322.85 10.44 323.66 8.37 Q 324.46 6.3 325.47 4.16 Q 326.48 2.01 327.54 0 L 327.54 0 Q 330.03 -4.69 333.22 -9.67 L 333.22 -9.67 Q 333.62 -12.52 334.04 -15.53 Q 334.46 -18.53 335.1 -21.35 Q 335.74 -24.17 336.71 -26.7 Q 337.68 -29.22 339.2 -31.09 Q 340.72 -32.96 342.85 -34.06 Q 344.97 -35.16 347.97 -35.16 L 347.97 -35.16 Q 350.21 -35.16 352.15 -34.55 Q 354.09 -33.95 355.55 -32.59 Q 357.02 -31.24 357.86 -29.1 Q 358.7 -26.95 358.7 -23.84 L 358.7 -23.84 Q 358.7 -21.35 357.97 -19.02 Q 357.24 -16.7 355.68 -14.58 Q 354.13 -12.45 351.73 -10.6 Q 349.33 -8.75 346.03 -7.29 L 346.03 -7.29 L 346.25 -6.52 Q 349.95 -6.52 352.99 -7.25 Q 356.03 -7.98 358.5 -9.23 Q 360.97 -10.47 362.97 -12.14 Q 364.97 -13.81 366.58 -15.71 L 366.58 -15.71 L 366.98 -7.32 Q 365.81 -5.9 364.14 -4.56 Q 362.48 -3.22 360.5 -2.22 Q 358.52 -1.21 356.34 -0.6 Q 354.16 0 352.04 0 L 352.04 0 Q 351.78 0 351.4 -0.07 Q 351.01 -0.15 350.06 -0.33 Q 349.11 -0.51 347.33 -0.82 Q 345.56 -1.14 342.52 -1.57 L 342.52 -1.57 L 342.52 -0.92 Q 342.52 5.75 341.4 11.19 Q 340.28 16.63 338.42 20.47 Q 336.55 24.32 334.13 26.4 Q 331.71 28.49 329.11 28.49 L 329.11 28.49 Q 327.03 28.49 325.63 27.47 Q 324.24 26.44 323.42 24.7 Q 322.6 22.96 322.25 20.64 Q 321.9 18.31 321.9 15.71 Z M 328.89 16.15 L 328.89 16.15 Q 328.89 16.44 329.02 17.1 Q 329.15 17.76 329.44 18.42 Q 329.74 19.08 330.21 19.59 Q 330.69 20.1 331.38 20.1 L 331.38 20.1 Q 332.01 20.1 332.41 19.43 Q 332.81 18.75 333.07 17.61 Q 333.33 16.48 333.44 15.05 Q 333.54 13.62 333.62 12.12 Q 333.69 10.62 333.71 9.19 Q 333.73 7.76 333.8 6.63 L 333.8 6.63 Q 333.91 4.65 333.97 3.28 Q 334.02 1.9 334.06 0.99 L 334.06 0.99 Q 334.09 -0.04 334.13 -0.73 L 334.13 -0.73 Q 333.44 0.48 332.78 2.07 Q 332.12 3.66 331.53 5.38 Q 330.94 7.1 330.47 8.83 Q 329.99 10.55 329.64 12.03 Q 329.3 13.51 329.1 14.59 Q 328.89 15.67 328.89 16.15 Z M 341.64 -10.22 L 341.64 -10.22 Q 343.84 -11.32 345.43 -12.67 Q 347.02 -14.03 348.18 -15.56 Q 349.33 -17.1 350.06 -18.75 Q 350.79 -20.4 351.23 -22.12 L 351.23 -22.12 Q 351.42 -22.92 351.47 -24.01 Q 351.53 -25.09 351.25 -26.04 Q 350.98 -26.99 350.3 -27.67 Q 349.62 -28.34 348.41 -28.34 L 348.41 -28.34 Q 347.06 -28.34 346.03 -27.59 Q 345.01 -26.84 344.26 -25.56 Q 343.51 -24.28 343.01 -22.52 Q 342.52 -20.76 342.21 -18.75 Q 341.89 -16.74 341.77 -14.56 Q 341.64 -12.38 341.64 -10.22 Z M 353.17 15.71 L 353.17 15.71 Q 353.17 14.21 353.65 12.32 Q 354.13 10.44 354.93 8.37 Q 355.74 6.3 356.74 4.16 Q 357.75 2.01 358.81 0 L 358.81 0 Q 361.3 -4.69 364.49 -9.67 L 364.49 -9.67 Q 364.89 -12.52 365.31 -15.53 Q 365.73 -18.53 366.38 -21.35 Q 367.02 -24.17 367.99 -26.7 Q 368.96 -29.22 370.48 -31.09 Q 372 -32.96 374.12 -34.06 Q 376.25 -35.16 379.25 -35.16 L 379.25 -35.16 Q 381.48 -35.16 383.42 -34.55 Q 385.36 -33.95 386.83 -32.59 Q 388.29 -31.24 389.14 -29.1 Q 389.98 -26.95 389.98 -23.84 L 389.98 -23.84 Q 389.98 -21.35 389.25 -19.02 Q 388.51 -16.7 386.96 -14.58 Q 385.4 -12.45 383 -10.6 Q 380.6 -8.75 377.31 -7.29 L 377.31 -7.29 L 377.53 -6.52 Q 381.23 -6.52 384.27 -7.25 Q 387.3 -7.98 389.78 -9.23 Q 392.25 -10.47 394.24 -12.14 Q 396.24 -13.81 397.85 -15.71 L 397.85 -15.71 L 398.25 -7.32 Q 397.08 -5.9 395.42 -4.56 Q 393.75 -3.22 391.77 -2.22 Q 389.79 -1.21 387.62 -0.6 Q 385.44 0 383.31 0 L 383.31 0 Q 383.06 0 382.67 -0.07 Q 382.29 -0.15 381.34 -0.33 Q 380.38 -0.51 378.61 -0.82 Q 376.83 -1.14 373.79 -1.57 L 373.79 -1.57 L 373.79 -0.92 Q 373.79 5.75 372.67 11.19 Q 371.56 16.63 369.69 20.47 Q 367.82 24.32 365.41 26.4 Q 362.99 28.49 360.39 28.49 L 360.39 28.49 Q 358.3 28.49 356.91 27.47 Q 355.52 26.44 354.69 24.7 Q 353.87 22.96 353.52 20.64 Q 353.17 18.31 353.17 15.71 Z M 360.17 16.15 L 360.17 16.15 Q 360.17 16.44 360.3 17.1 Q 360.42 17.76 360.72 18.42 Q 361.01 19.08 361.49 19.59 Q 361.96 20.1 362.66 20.1 L 362.66 20.1 Q 363.28 20.1 363.68 19.43 Q 364.09 18.75 364.34 17.61 Q 364.6 16.48 364.71 15.05 Q 364.82 13.62 364.89 12.12 Q 364.97 10.62 364.98 9.19 Q 365 7.76 365.08 6.63 L 365.08 6.63 Q 365.19 4.65 365.24 3.28 Q 365.3 1.9 365.33 0.99 L 365.33 0.99 Q 365.37 -0.04 365.41 -0.73 L 365.41 -0.73 Q 364.71 0.48 364.05 2.07 Q 363.39 3.66 362.81 5.38 Q 362.22 7.1 361.74 8.83 Q 361.27 10.55 360.92 12.03 Q 360.57 13.51 360.37 14.59 Q 360.17 15.67 360.17 16.15 Z M 372.91 -10.22 L 372.91 -10.22 Q 375.11 -11.32 376.7 -12.67 Q 378.3 -14.03 379.45 -15.56 Q 380.6 -17.1 381.34 -18.75 Q 382.07 -20.4 382.51 -22.12 L 382.51 -22.12 Q 382.69 -22.92 382.75 -24.01 Q 382.8 -25.09 382.53 -26.04 Q 382.25 -26.99 381.57 -27.67 Q 380.9 -28.34 379.69 -28.34 L 379.69 -28.34 Q 378.33 -28.34 377.31 -27.59 Q 376.28 -26.84 375.53 -25.56 Q 374.78 -24.28 374.29 -22.52 Q 373.79 -20.76 373.48 -18.75 Q 373.17 -16.74 373.04 -14.56 Q 372.91 -12.38 372.91 -10.22 Z M 389.17 -9.38 L 389.17 -9.38 Q 389.17 -10.25 389.61 -11 Q 390.05 -11.76 390.64 -12.34 Q 391.22 -12.93 391.81 -13.37 Q 392.4 -13.81 392.69 -14.06 L 392.69 -14.06 Q 394.74 -15.82 396.02 -16.99 Q 397.3 -18.16 398.22 -19.13 Q 399.13 -20.1 399.88 -21.09 Q 400.63 -22.08 401.66 -23.44 Q 402.69 -24.79 404.15 -26.75 Q 405.62 -28.71 407.96 -31.64 L 407.96 -31.64 Q 408.44 -32.3 409.02 -32.92 Q 409.61 -33.54 410.32 -34.04 Q 411.04 -34.53 411.9 -34.84 Q 412.76 -35.16 413.82 -35.16 L 413.82 -35.16 Q 415.58 -35.16 416.53 -34.77 Q 417.48 -34.39 417.92 -33.84 Q 418.36 -33.29 418.43 -32.68 Q 418.51 -32.08 418.51 -31.64 L 418.51 -31.64 Q 418.51 -30.76 417.81 -29.7 Q 417.11 -28.64 416.27 -27.65 Q 415.43 -26.66 414.68 -25.84 Q 413.93 -25.01 413.82 -24.61 L 413.82 -24.61 Q 413.82 -23.47 413.98 -22.54 Q 414.15 -21.61 414.42 -20.71 Q 414.7 -19.81 414.99 -18.8 Q 415.28 -17.8 415.56 -16.48 Q 415.83 -15.16 416 -13.44 Q 416.16 -11.72 416.16 -9.38 L 416.16 -9.38 Q 417.48 -10.25 419 -10.97 Q 420.52 -11.68 422.17 -12.45 Q 423.82 -13.22 425.56 -14.15 Q 427.29 -15.09 429.05 -16.41 L 429.05 -16.41 L 429.09 -8.2 Q 426.82 -6.45 423.83 -4.91 Q 420.85 -3.37 417.57 -2.2 Q 414.29 -1.03 410.94 -0.35 Q 407.59 0.33 404.59 0.33 L 404.59 0.33 Q 402.43 0.33 400.56 -0.07 Q 398.69 -0.48 397.28 -1.34 Q 395.87 -2.2 395 -3.59 Q 394.12 -4.98 393.93 -6.96 L 393.93 -6.96 Q 393.42 -6.85 392.93 -6.81 Q 392.43 -6.77 391.96 -6.77 L 391.96 -6.77 Q 391.37 -6.77 390.86 -6.81 Q 390.34 -6.85 389.98 -7.09 Q 389.61 -7.32 389.39 -7.86 Q 389.17 -8.39 389.17 -9.38 Z M 406.79 -18.75 L 397.38 -9.38 Q 397.81 -9.38 398.35 -8.83 Q 398.88 -8.28 399.57 -7.62 Q 400.27 -6.96 401.18 -6.41 Q 402.1 -5.86 403.27 -5.86 L 403.27 -5.86 Q 404.7 -5.86 405.63 -6.34 Q 406.57 -6.81 407.12 -7.6 Q 407.67 -8.39 407.89 -9.43 Q 408.11 -10.47 408.11 -11.61 L 408.11 -11.61 Q 408.11 -12.6 407.98 -13.62 Q 407.85 -14.65 407.65 -15.58 Q 407.45 -16.52 407.21 -17.34 Q 406.97 -18.16 406.79 -18.75 L 406.79 -18.75 Z" stroke-linecap="round" />
</g>
</svg>